<svg width="109" height="19" viewBox="0 0 109 19" fill="none" xmlns="http://www.w3.org/2000/svg">
    <path d="M0.728328 18.2121C0.598054 18.2121 0.475614 18.1638 0.361457 18.0671C0.26364 17.9704 0.214844 17.8495 0.214844 17.7045C0.214844 17.64 0.231184 17.5675 0.263641 17.4869L6.15705 1.8944C6.20607 1.73324 6.2956 1.59625 6.4261 1.48343C6.57271 1.3545 6.76835 1.29004 7.013 1.29004H9.67845C9.92288 1.29004 10.1105 1.3545 10.2407 1.48343C10.3712 1.59625 10.469 1.73324 10.5342 1.8944L16.4276 17.4869C16.4439 17.5675 16.452 17.64 16.452 17.7045C16.452 17.8495 16.4032 17.9704 16.3054 18.0671C16.2076 18.1638 16.0934 18.2121 15.9629 18.2121H13.8356C13.6073 18.2121 13.436 18.1638 13.3221 18.0671C13.2243 17.9543 13.1589 17.8495 13.1264 17.7528L11.977 14.8035H4.71442L3.56501 17.7528C3.53233 17.8495 3.45891 17.9543 3.34498 18.0671C3.24716 18.1638 3.08399 18.2121 2.8559 18.2121H0.728328ZM5.57015 12.0235H11.1211L8.33342 4.55359L5.57015 12.0235Z"
          fill="#222222"/>
    <path d="M19.0285 18.2118C18.8653 18.2118 18.7267 18.1554 18.6126 18.0425C18.4986 17.9297 18.4416 17.7927 18.4416 17.6316V6.22125C18.4416 6.06009 18.4986 5.9231 18.6126 5.81028C18.7267 5.69747 18.8653 5.64106 19.0285 5.64106H21.058C21.2373 5.64106 21.3758 5.69747 21.4737 5.81028C21.5878 5.9231 21.6449 6.06009 21.6449 6.22125V17.6316C21.6449 17.7927 21.5878 17.9297 21.4737 18.0425C21.3758 18.1554 21.2373 18.2118 21.058 18.2118H19.0285ZM18.9307 3.56206C18.7511 3.56206 18.6045 3.51371 18.4904 3.41702C18.3925 3.3042 18.3438 3.15916 18.3438 2.98188V1.24132C18.3438 1.08016 18.3925 0.943168 18.4904 0.830354C18.6045 0.71754 18.7511 0.661133 18.9307 0.661133H21.1558C21.3351 0.661133 21.4819 0.71754 21.5961 0.830354C21.71 0.943168 21.7671 1.08016 21.7671 1.24132V2.98188C21.7671 3.15916 21.71 3.3042 21.5961 3.41702C21.4819 3.51371 21.3351 3.56206 21.1558 3.56206H18.9307Z"
          fill="#222222"/>
    <path d="M25.9775 18.2118C25.8146 18.2118 25.676 18.1554 25.5619 18.0426C25.4477 17.9298 25.3906 17.7928 25.3906 17.6316V6.24547C25.3906 6.06819 25.4477 5.92315 25.5619 5.81033C25.676 5.69752 25.8146 5.64111 25.9775 5.64111H27.9583C28.1214 5.64111 28.26 5.69752 28.3742 5.81033C28.5044 5.92315 28.5698 6.06819 28.5698 6.24547V7.23662C28.9447 6.7209 29.4255 6.32605 30.0124 6.05208C30.6157 5.7781 31.3084 5.64111 32.091 5.64111H33.0935C33.273 5.64111 33.4116 5.69752 33.5094 5.81033C33.6234 5.92315 33.6804 6.06014 33.6804 6.2213V7.96186C33.6804 8.12302 33.6234 8.26001 33.5094 8.37282C33.4116 8.48564 33.273 8.54204 33.0935 8.54204H31.1862C30.4037 8.54204 29.7924 8.75961 29.3523 9.19475C28.9284 9.62989 28.7164 10.2262 28.7164 10.9837V17.6316C28.7164 17.7928 28.6593 17.9298 28.5452 18.0426C28.4312 18.1554 28.2844 18.2118 28.1051 18.2118H25.9775Z"
          fill="#222222"/>
    <path d="M41.8229 18.4534C40.3069 18.4534 39.0352 18.2359 38.0081 17.8007C36.9974 17.3495 36.223 16.7693 35.6851 16.0602C35.1633 15.3349 34.8862 14.5775 34.8535 13.7878C34.8535 13.6427 34.9025 13.5219 35.0003 13.4252C35.0982 13.3285 35.2204 13.2801 35.3672 13.2801H37.5436C37.7553 13.2801 37.9102 13.3285 38.0081 13.4252C38.1222 13.5057 38.22 13.6105 38.3015 13.7394C38.3993 14.0456 38.5869 14.3518 38.864 14.658C39.1411 14.9481 39.516 15.1899 39.9888 15.3833C40.4779 15.5767 41.0894 15.6734 41.8229 15.6734C42.9967 15.6734 43.8688 15.48 44.4393 15.0932C45.0262 14.7064 45.3197 14.1826 45.3197 13.5219C45.3197 13.0545 45.1648 12.6838 44.8552 12.4098C44.5454 12.1197 44.0644 11.8619 43.4124 11.6362C42.7767 11.3945 41.9288 11.1447 40.8691 10.8868C39.6465 10.5967 38.6194 10.2502 37.788 9.84734C36.973 9.42832 36.3534 8.90454 35.9295 8.276C35.5219 7.64747 35.3182 6.84971 35.3182 5.88273C35.3182 4.94799 35.5709 4.118 36.0763 3.39277C36.5979 2.66754 37.3316 2.09541 38.2771 1.67639C39.2389 1.25736 40.3801 1.04785 41.7007 1.04785C42.7603 1.04785 43.6978 1.1929 44.5128 1.48299C45.328 1.75697 46.0044 2.12764 46.5425 2.59501C47.0804 3.04627 47.488 3.53782 47.7651 4.06965C48.0586 4.58537 48.2135 5.09304 48.2298 5.59264C48.2298 5.72157 48.1808 5.84244 48.083 5.95526C48.0015 6.05196 47.8793 6.1003 47.7163 6.1003H45.4421C45.3116 6.1003 45.1811 6.06807 45.0509 6.00361C44.9204 5.93914 44.8145 5.81827 44.7328 5.64099C44.635 5.14139 44.3171 4.71431 43.7792 4.35975C43.2411 4.00519 42.5484 3.82791 41.7007 3.82791C40.8203 3.82791 40.1112 3.98907 39.5731 4.3114C39.0352 4.63372 38.7662 5.13333 38.7662 5.81021C38.7662 6.26147 38.8967 6.6402 39.1575 6.94641C39.4346 7.2365 39.8666 7.49436 40.4535 7.71999C41.0567 7.94562 41.8473 8.18736 42.8255 8.44522C44.2113 8.75143 45.3443 9.10599 46.2244 9.5089C47.1048 9.91181 47.7488 10.4275 48.1564 11.0561C48.564 11.6685 48.7677 12.4501 48.7677 13.401C48.7677 14.4647 48.4742 15.3752 47.8873 16.1327C47.3168 16.874 46.5098 17.4462 45.4665 17.8491C44.4232 18.252 43.2087 18.4534 41.8229 18.4534Z"
          fill="#222222"/>
    <path d="M55.9961 18.4536C55.0016 18.4536 54.1376 18.236 53.4041 17.8008C52.6867 17.3496 52.1325 16.7211 51.7412 15.9152C51.3499 15.0933 51.1543 14.1263 51.1543 13.0143V6.2213C51.1543 6.06014 51.2114 5.92315 51.3255 5.81033C51.4395 5.69752 51.5782 5.64111 51.7412 5.64111H53.8932C54.0725 5.64111 54.211 5.69752 54.3088 5.81033C54.423 5.92315 54.4801 6.06014 54.4801 6.2213V12.8693C54.4801 14.8677 55.3685 15.8669 57.1455 15.8669C57.9932 15.8669 58.6616 15.601 59.1507 15.0691C59.6561 14.5373 59.9088 13.804 59.9088 12.8693V6.2213C59.9088 6.06014 59.9657 5.92315 60.0798 5.81033C60.194 5.69752 60.3325 5.64111 60.4955 5.64111H62.6474C62.8106 5.64111 62.9492 5.69752 63.0631 5.81033C63.1773 5.92315 63.2343 6.06014 63.2343 6.2213V17.6316C63.2343 17.7928 63.1773 17.9298 63.0631 18.0426C62.9492 18.1554 62.8106 18.2118 62.6474 18.2118H60.6667C60.4874 18.2118 60.3408 18.1554 60.2266 18.0426C60.1288 17.9298 60.0798 17.7928 60.0798 17.6316V16.6405C59.6397 17.2045 59.0936 17.6477 58.4415 17.9701C57.7893 18.2924 56.9743 18.4536 55.9961 18.4536Z"
          fill="#222222"/>
    <path d="M67.0517 18.2118C66.8888 18.2118 66.7502 18.1554 66.6361 18.0426C66.5219 17.9298 66.4648 17.7928 66.4648 17.6316V6.24547C66.4648 6.06819 66.5219 5.92315 66.6361 5.81033C66.7502 5.69752 66.8888 5.64111 67.0517 5.64111H69.0325C69.1954 5.64111 69.334 5.69752 69.4481 5.81033C69.5786 5.92315 69.6438 6.06819 69.6438 6.24547V7.23662C70.0187 6.7209 70.4997 6.32605 71.0866 6.05208C71.6899 5.7781 72.3826 5.64111 73.1652 5.64111H74.1678C74.347 5.64111 74.4856 5.69752 74.5834 5.81033C74.6976 5.92315 74.7547 6.06014 74.7547 6.2213V7.96186C74.7547 8.12302 74.6976 8.26001 74.5834 8.37282C74.4856 8.48564 74.347 8.54204 74.1678 8.54204H72.2604C71.4779 8.54204 70.8666 8.75961 70.4263 9.19475C70.0026 9.62989 69.7906 10.2262 69.7906 10.9837V17.6316C69.7906 17.7928 69.7335 17.9298 69.6194 18.0426C69.5052 18.1554 69.3586 18.2118 69.1793 18.2118H67.0517Z"
          fill="#222222"/>
    <path d="M78.6194 18.2118C78.4564 18.2118 78.3179 18.1554 78.2037 18.0426C78.0896 17.9298 78.0325 17.7928 78.0325 17.6316V8.20361H76.0517C75.8888 8.20361 75.7502 8.14721 75.6361 8.03439C75.5219 7.92158 75.4648 7.78459 75.4648 7.62343V6.22131C75.4648 6.06015 75.5219 5.92316 75.6361 5.81035C75.7502 5.69753 75.8888 5.64113 76.0517 5.64113H78.0325V4.64997C78.0325 3.683 78.2118 2.88524 78.5706 2.25671C78.9292 1.61206 79.459 1.12857 80.1601 0.806242C80.8611 0.483917 81.7495 0.322754 82.8255 0.322754H84.4884C84.6677 0.322754 84.8062 0.379161 84.9041 0.491975C85.0182 0.604788 85.0751 0.741777 85.0751 0.90294V2.30506C85.0751 2.46622 85.0182 2.60321 84.9041 2.71602C84.8062 2.82884 84.6677 2.88524 84.4884 2.88524H82.9233C82.2711 2.88524 81.8229 3.0464 81.5783 3.36873C81.3339 3.69106 81.2114 4.15843 81.2114 4.77085V5.64113H84.2437C84.423 5.64113 84.5616 5.69753 84.6594 5.81035C84.7736 5.92316 84.8306 6.06015 84.8306 6.22131V7.62343C84.8306 7.78459 84.7736 7.92158 84.6594 8.03439C84.5616 8.14721 84.423 8.20361 84.2437 8.20361H81.2114V17.6316C81.2114 17.7928 81.1543 17.9298 81.0404 18.0426C80.9262 18.1554 80.7877 18.2118 80.6245 18.2118H78.6194Z"
          fill="#222222"/>
    <path d="M92.0734 18.4536C90.2637 18.4536 88.8291 17.9379 87.7695 16.9064C86.7099 15.875 86.1393 14.4084 86.0578 12.5067C86.0415 12.3455 86.0332 12.1441 86.0332 11.9023C86.0332 11.6445 86.0415 11.443 86.0578 11.298C86.123 10.0893 86.4001 9.04169 86.8892 8.1553C87.3946 7.2689 88.0874 6.59202 88.9677 6.12465C89.8481 5.64116 90.8833 5.39941 92.0734 5.39941C93.3939 5.39941 94.5023 5.67339 95.399 6.22134C96.2957 6.75318 96.9721 7.50259 97.4287 8.46957C97.8851 9.42043 98.1135 10.5244 98.1135 11.7815V12.2891C98.1135 12.4503 98.0564 12.5873 97.9422 12.7001C97.8281 12.8129 97.6815 12.8693 97.5019 12.8693H89.3834C89.3834 12.8693 89.3834 12.8935 89.3834 12.9418C89.3834 12.9902 89.3834 13.0305 89.3834 13.0627C89.3997 13.6268 89.5058 14.1506 89.7014 14.634C89.9132 15.1014 90.2149 15.4801 90.6062 15.7702C91.0136 16.0603 91.4946 16.2054 92.0488 16.2054C92.5055 16.2054 92.8884 16.1409 93.1982 16.012C93.508 15.8669 93.7607 15.7058 93.9564 15.5285C94.152 15.3512 94.2905 15.2062 94.372 15.0934C94.5186 14.9 94.6328 14.7871 94.7143 14.7549C94.8121 14.7066 94.9506 14.6824 95.1299 14.6824H97.2331C97.3961 14.6824 97.5266 14.7307 97.6244 14.8274C97.7385 14.9241 97.7873 15.045 97.771 15.1901C97.7546 15.4479 97.6161 15.7622 97.3553 16.1329C97.1109 16.5035 96.7521 16.8661 96.2793 17.2207C95.8066 17.5753 95.2116 17.8734 94.4942 18.1152C93.7932 18.3408 92.9863 18.4536 92.0734 18.4536ZM89.3834 10.8387H94.7877V10.7661C94.7877 10.1376 94.6818 9.58965 94.4698 9.12227C94.2579 8.6549 93.9481 8.28423 93.5405 8.01025C93.1331 7.73627 92.644 7.59929 92.0734 7.59929C91.5027 7.59929 91.0136 7.73627 90.6062 8.01025C90.1986 8.28423 89.8888 8.6549 89.6768 9.12227C89.4812 9.58965 89.3834 10.1376 89.3834 10.7661V10.8387Z"
          fill="#222222"/>
    <path d="M101.296 18.2118C101.133 18.2118 100.994 18.1554 100.88 18.0426C100.766 17.9298 100.709 17.7928 100.709 17.6316V6.24547C100.709 6.06819 100.766 5.92315 100.88 5.81033C100.994 5.69752 101.133 5.64111 101.296 5.64111H103.277C103.44 5.64111 103.578 5.69752 103.692 5.81033C103.823 5.92315 103.888 6.06819 103.888 6.24547V7.23662C104.263 6.7209 104.744 6.32605 105.331 6.05208C105.934 5.7781 106.627 5.64111 107.409 5.64111H108.412C108.591 5.64111 108.73 5.69752 108.828 5.81033C108.942 5.92315 108.999 6.06014 108.999 6.2213V7.96186C108.999 8.12302 108.942 8.26001 108.828 8.37282C108.73 8.48564 108.591 8.54204 108.412 8.54204H106.505C105.722 8.54204 105.111 8.75961 104.67 9.19475C104.247 9.62989 104.035 10.2262 104.035 10.9837V17.6316C104.035 17.7928 103.978 17.9298 103.864 18.0426C103.749 18.1554 103.603 18.2118 103.423 18.2118H101.296Z"
          fill="#222222"/>
</svg>
